<?xml version="1.0" encoding="UTF-8"?>
<svg width="508px" height="80px" viewBox="0 0 508 80" version="1.1" xmlns="http://www.w3.org/2000/svg" xmlns:xlink="http://www.w3.org/1999/xlink">
    <!-- Generator: Sketch 46.2 (44496) - http://www.bohemiancoding.com/sketch -->
    <title>logo-with-text</title>
    <desc>Created with Sketch.</desc>
    <defs></defs>
    <g id="Page-1" stroke="none" stroke-width="1" fill="none" fill-rule="evenodd">
        <g id="Artboard" transform="translate(-71.000000, -423.000000)">
            <g id="logo-with-text" transform="translate(71.000000, 423.000000)">
                <g id="Group-2">
                    <path d="M40,80 L40,0 C17.90861,0 0,17.90861 0,40 C0,62.09139 17.90861,80 40,80 Z" id="Oval" fill="#062A38"></path>
                    <path d="M40,80 L40,0 C62.09139,0 80,17.90861 80,40 C80,62.09139 62.09139,80 40,80 Z" id="Oval" fill="#149DD3"></path>
                    <path d="M40,12 L40,68 C55.463973,68 68,55.463973 68,40 C68,24.536027 55.463973,12 40,12 Z" id="Oval" fill="#062A38"></path>
                    <path d="M40,68 L40,12 C24.536027,12 12,24.536027 12,40 C12,55.463973 24.536027,68 40,68 Z" id="Oval" fill="#149DD3"></path>
                    <circle id="Oval" fill="#FFFFFF" cx="40" cy="40" r="16"></circle>
                </g>
                <path d="M134.56,12.576 L134.56,66 L123.544,66 L123.544,60.312 C122.151993,62.3280101 120.42401,63.8519948 118.36,64.884 C116.29599,65.9160052 113.944013,66.432 111.304,66.432 C107.655982,66.432 104.452014,65.6040083 101.692,63.948 C98.9319862,62.2919917 96.7960076,59.9520151 95.284,56.928 C93.7719924,53.9039849 93.016,50.4240197 93.016,46.488 C93.016,42.5999806 93.7599926,39.1680149 95.248,36.192 C96.7360074,33.2159851 98.8479863,30.9120082 101.584,29.28 C104.320014,27.6479918 107.463982,26.832 111.016,26.832 C116.488027,26.832 120.663986,28.8719796 123.544,32.952 L123.544,12.576 L134.56,12.576 Z M120.844,54.516 C122.644009,52.52399 123.544,49.9440158 123.544,46.776 C123.544,43.6079842 122.644009,41.02801 120.844,39.036 C119.043991,37.04399 116.728014,36.048 113.896,36.048 C111.015986,36.048 108.676009,37.04399 106.876,39.036 C105.075991,41.02801 104.152,43.6079842 104.104,46.776 C104.152,49.9440158 105.075991,52.52399 106.876,54.516 C108.676009,56.50801 111.015986,57.504 113.896,57.504 C116.728014,57.504 119.043991,56.50801 120.844,54.516 Z M173.98,29.352 C177.124016,30.9840082 179.559991,33.2879851 181.288,36.264 C183.016009,39.2400149 183.88,42.6959803 183.88,46.632 C183.88,50.5200194 183.016009,53.963985 181.288,56.964 C179.559991,59.964015 177.124016,62.2919917 173.98,63.948 C170.835984,65.6040083 167.22402,66.432 163.144,66.432 C159.015979,66.432 155.380016,65.6040083 152.236,63.948 C149.091984,62.2919917 146.656009,59.964015 144.928,56.964 C143.199991,53.963985 142.336,50.5200194 142.336,46.632 C142.336,42.6959803 143.199991,39.2400149 144.928,36.264 C146.656009,33.2879851 149.091984,30.9840082 152.236,29.352 C155.380016,27.7199918 159.015979,26.904 163.144,26.904 C167.22402,26.904 170.835984,27.7199918 173.98,29.352 Z M156.124,39.072 C154.323991,41.0400098 153.424,43.6079842 153.424,46.776 C153.424,49.9440158 154.323991,52.5119902 156.124,54.48 C157.924009,56.4480098 160.263986,57.432 163.144,57.432 C165.976014,57.432 168.291991,56.4480098 170.092,54.48 C171.892009,52.5119902 172.792,49.9440158 172.792,46.776 C172.792,43.6079842 171.892009,41.0400098 170.092,39.072 C168.291991,37.1039902 165.976014,36.12 163.144,36.12 C160.263986,36.12 157.924009,37.1039902 156.124,39.072 Z M252.676,30.828 C255.196013,33.4920133 256.456,37.1039772 256.456,41.664 L256.456,66 L245.44,66 L245.44,44.904 C245.44,42.4079875 244.768007,40.464007 243.424,39.072 C242.079993,37.679993 240.256012,36.984 237.952,36.984 C235.311987,37.0320002 233.224008,37.9679909 231.688,39.792 C230.151992,41.6160091 229.384,43.9679856 229.384,46.848 L229.384,66 L218.368,66 L218.368,44.904 C218.368,42.4559878 217.708007,40.5240071 216.388,39.108 C215.067993,37.6919929 213.256012,36.984 210.952,36.984 C208.311987,37.0320002 206.212008,37.9679909 204.652,39.792 C203.091992,41.6160091 202.312,43.9679856 202.312,46.848 L202.312,66 L191.224,66 L191.224,27.264 L202.312,27.264 L202.312,33.96 C205.000013,29.3039767 209.36797,26.9280005 215.416,26.832 C218.680016,26.832 221.439989,27.6119922 223.696,29.172 C225.952011,30.7320078 227.559995,32.9279858 228.52,35.76 C229.768006,32.8319854 231.579988,30.6240074 233.956,29.136 C236.332012,27.6479926 239.175983,26.8800002 242.488,26.832 C246.760021,26.832 250.155987,28.1639867 252.676,30.828 Z M288.496,66 L288.496,61.464 C287.199994,63.0960082 285.52001,64.3439957 283.456,65.208 C281.39199,66.0720043 279.016013,66.504 276.328,66.504 C272.24798,66.504 269.008012,65.3880112 266.608,63.156 C264.207988,60.9239888 263.008,58.008018 263.008,54.408 C263.008,50.7599818 264.291987,47.9160102 266.86,45.876 C269.428013,43.8359898 273.063976,42.7920002 277.768,42.744 L288.424,42.744 L288.424,42.024 C288.424,39.9599897 287.740007,38.3640056 286.372,37.236 C285.003993,36.1079944 283.000013,35.544 280.36,35.544 C276.759982,35.544 272.92002,36.6719887 268.84,38.928 L265.384,31.296 C268.456015,29.7599923 271.335987,28.6320036 274.024,27.912 C276.712013,27.1919964 279.663984,26.832 282.88,26.832 C288.064026,26.832 292.083986,28.0559878 294.94,30.504 C297.796014,32.9520122 299.248,36.3599782 299.296,40.728 L299.368,66 L288.496,66 Z M285.4,56.928 C287.080008,55.8239945 288.087998,54.4320084 288.424,52.752 L288.424,49.296 L279.712,49.296 C277.551989,49.296 275.956005,49.6439965 274.924,50.34 C273.891995,51.0360035 273.376,52.1519923 273.376,53.688 C273.376,55.1760074 273.915995,56.3639956 274.996,57.252 C276.076005,58.1400044 277.551991,58.584 279.424,58.584 C281.728012,58.584 283.719992,58.0320055 285.4,56.928 Z M308.944,27.264 L320.032,27.264 L320.032,66 L308.944,66 L308.944,27.264 Z M318.772,11.784 C319.900006,12.9360058 320.464,14.4239909 320.464,16.248 C320.464,18.0720091 319.900006,19.5599942 318.772,20.712 C317.643994,21.8640058 316.192009,22.44 314.416,22.44 C312.687991,22.44 311.260006,21.8520059 310.132,20.676 C309.003994,19.4999941 308.44,18.0240089 308.44,16.248 C308.44,14.4239909 309.003994,12.9360058 310.132,11.784 C311.260006,10.6319942 312.687991,10.056 314.416,10.056 C316.192009,10.056 317.643994,10.6319942 318.772,11.784 Z M365.5,30.864 C368.068013,33.5520134 369.352,37.1519774 369.352,41.664 L369.352,66 L358.264,66 L358.264,44.904 C358.264,42.4559878 357.580007,40.5240071 356.212,39.108 C354.843993,37.6919929 352.984012,36.984 350.632,36.984 C347.895986,37.0320002 345.736008,37.9799908 344.152,39.828 C342.567992,41.6760092 341.776,44.0399856 341.776,46.92 L341.776,66 L330.688,66 L330.688,27.264 L341.776,27.264 L341.776,34.032 C344.464013,29.3279765 348.927969,26.9280005 355.168,26.832 C359.488022,26.832 362.931987,28.1759866 365.5,30.864 Z M417.16,12.576 L417.16,66 L406.144,66 L406.144,60.312 C404.751993,62.3280101 403.02401,63.8519948 400.96,64.884 C398.89599,65.9160052 396.544013,66.432 393.904,66.432 C390.255982,66.432 387.052014,65.6040083 384.292,63.948 C381.531986,62.2919917 379.396008,59.9520151 377.884,56.928 C376.371992,53.9039849 375.616,50.4240197 375.616,46.488 C375.616,42.5999806 376.359993,39.1680149 377.848,36.192 C379.336007,33.2159851 381.447986,30.9120082 384.184,29.28 C386.920014,27.6479918 390.063982,26.832 393.616,26.832 C399.088027,26.832 403.263986,28.8719796 406.144,32.952 L406.144,12.576 L417.16,12.576 Z M403.444,54.516 C405.244009,52.52399 406.144,49.9440158 406.144,46.776 C406.144,43.6079842 405.244009,41.02801 403.444,39.036 C401.643991,37.04399 399.328014,36.048 396.496,36.048 C393.615986,36.048 391.276009,37.04399 389.476,39.036 C387.675991,41.02801 386.752,43.6079842 386.704,46.776 C386.752,49.9440158 387.675991,52.52399 389.476,54.516 C391.276009,56.50801 393.615986,57.504 396.496,57.504 C399.328014,57.504 401.643991,56.50801 403.444,54.516 Z M456.58,29.352 C459.724016,30.9840082 462.159991,33.2879851 463.888,36.264 C465.616009,39.2400149 466.48,42.6959803 466.48,46.632 C466.48,50.5200194 465.616009,53.963985 463.888,56.964 C462.159991,59.964015 459.724016,62.2919917 456.58,63.948 C453.435984,65.6040083 449.82402,66.432 445.744,66.432 C441.615979,66.432 437.980016,65.6040083 434.836,63.948 C431.691984,62.2919917 429.256009,59.964015 427.528,56.964 C425.799991,53.963985 424.936,50.5200194 424.936,46.632 C424.936,42.6959803 425.799991,39.2400149 427.528,36.264 C429.256009,33.2879851 431.691984,30.9840082 434.836,29.352 C437.980016,27.7199918 441.615979,26.904 445.744,26.904 C449.82402,26.904 453.435984,27.7199918 456.58,29.352 Z M438.724,39.072 C436.923991,41.0400098 436.024,43.6079842 436.024,46.776 C436.024,49.9440158 436.923991,52.5119902 438.724,54.48 C440.524009,56.4480098 442.863986,57.432 445.744,57.432 C448.576014,57.432 450.891991,56.4480098 452.692,54.48 C454.492009,52.5119902 455.392,49.9440158 455.392,46.776 C455.392,43.6079842 454.492009,41.0400098 452.692,39.072 C450.891991,37.1039902 448.576014,36.12 445.744,36.12 C442.863986,36.12 440.524009,37.1039902 438.724,39.072 Z M491.032,36.336 C488.247986,36.336 485.980009,37.2839905 484.228,39.18 C482.475991,41.0760095 481.6,43.5839844 481.6,46.704 C481.6,49.8240156 482.463991,52.3559903 484.192,54.3 C485.920009,56.2440097 488.127987,57.216 490.816,57.216 C494.84802,57.216 497.84799,55.7040151 499.816,52.68 L507.448,57.864 C505.815992,60.6000137 503.524015,62.7119926 500.572,64.2 C497.619985,65.6880074 494.17602,66.432 490.24,66.432 C486.351981,66.432 482.920015,65.6160082 479.944,63.984 C476.967985,62.3519918 474.652008,60.0480149 472.996,57.072 C471.339992,54.0959851 470.512,50.6640194 470.512,46.776 C470.512,42.8399803 471.339992,39.372015 472.996,36.372 C474.652008,33.371985 476.979985,31.0440083 479.98,29.388 C482.980015,27.7319917 486.44798,26.904 490.384,26.904 C494.080018,26.904 497.367986,27.6119929 500.248,29.028 C503.128014,30.4440071 505.431991,32.447987 507.16,35.04 L499.672,40.44 C497.463989,37.7039863 494.584018,36.336 491.032,36.336 Z" id="domaindoc" fill="#062A38"></path>
            </g>
        </g>
    </g>
</svg>