<?xml version="1.0" encoding="UTF-8"?>
<svg width="506px" height="80px" viewBox="0 0 506 80" version="1.1" xmlns="http://www.w3.org/2000/svg" xmlns:xlink="http://www.w3.org/1999/xlink">
    <!-- Generator: Sketch 46.2 (44496) - http://www.bohemiancoding.com/sketch -->
    <title>logo-with-text</title>
    <desc>Created with Sketch.</desc>
    <defs></defs>
    <g id="Page-1" stroke="none" stroke-width="1" fill="none" fill-rule="evenodd">
        <g id="Artboard" transform="translate(-71.000000, -427.000000)">
            <g id="logo-with-text" transform="translate(71.000000, 427.000000)">
                <g id="logo" transform="translate(91.000000, 10.000000)" fill="#062A38">
                    <path d="M41.56,2.576 L41.56,56 L30.544,56 L30.544,50.312 C29.151993,52.3280101 27.4240103,53.8519948 25.36,54.884 C23.2959897,55.9160052 20.9440132,56.432 18.304,56.432 C14.6559818,56.432 11.4520138,55.6040083 8.692,53.948 C5.9319862,52.2919917 3.79600756,49.9520151 2.284,46.928 C0.77199244,43.9039849 0.016,40.4240197 0.016,36.488 C0.016,32.5999806 0.75999256,29.1680149 2.248,26.192 C3.73600744,23.2159851 5.84798632,20.9120082 8.584,19.28 C11.3200137,17.6479918 14.4639822,16.832 18.016,16.832 C23.4880274,16.832 27.6639856,18.8719796 30.544,22.952 L30.544,2.576 L41.56,2.576 Z M27.844,44.516 C29.644009,42.52399 30.544,39.9440158 30.544,36.776 C30.544,33.6079842 29.644009,31.02801 27.844,29.036 C26.043991,27.04399 23.7280142,26.048 20.896,26.048 C18.0159856,26.048 15.676009,27.04399 13.876,29.036 C12.075991,31.02801 11.1520002,33.6079842 11.104,36.776 C11.1520002,39.9440158 12.075991,42.52399 13.876,44.516 C15.676009,46.50801 18.0159856,47.504 20.896,47.504 C23.7280142,47.504 26.043991,46.50801 27.844,44.516 Z M80.98,19.352 C84.1240157,20.9840082 86.5599914,23.2879851 88.288,26.264 C90.0160086,29.2400149 90.88,32.6959803 90.88,36.632 C90.88,40.5200194 90.0160086,43.963985 88.288,46.964 C86.5599914,49.964015 84.1240157,52.2919917 80.98,53.948 C77.8359843,55.6040083 74.2240204,56.432 70.144,56.432 C66.0159794,56.432 62.3800157,55.6040083 59.236,53.948 C56.0919843,52.2919917 53.6560086,49.964015 51.928,46.964 C50.1999914,43.963985 49.336,40.5200194 49.336,36.632 C49.336,32.6959803 50.1999914,29.2400149 51.928,26.264 C53.6560086,23.2879851 56.0919843,20.9840082 59.236,19.352 C62.3800157,17.7199918 66.0159794,16.904 70.144,16.904 C74.2240204,16.904 77.8359843,17.7199918 80.98,19.352 Z M63.124,29.072 C61.323991,31.0400098 60.424,33.6079842 60.424,36.776 C60.424,39.9440158 61.323991,42.5119902 63.124,44.48 C64.924009,46.4480098 67.2639856,47.432 70.144,47.432 C72.9760142,47.432 75.291991,46.4480098 77.092,44.48 C78.892009,42.5119902 79.792,39.9440158 79.792,36.776 C79.792,33.6079842 78.892009,31.0400098 77.092,29.072 C75.291991,27.1039902 72.9760142,26.12 70.144,26.12 C67.2639856,26.12 64.924009,27.1039902 63.124,29.072 Z M159.676,20.828 C162.196013,23.4920133 163.456,27.1039772 163.456,31.664 L163.456,56 L152.44,56 L152.44,34.904 C152.44,32.4079875 151.768007,30.464007 150.424,29.072 C149.079993,27.679993 147.256012,26.984 144.952,26.984 C142.311987,27.0320002 140.224008,27.9679909 138.688,29.792 C137.151992,31.6160091 136.384,33.9679856 136.384,36.848 L136.384,56 L125.368,56 L125.368,34.904 C125.368,32.4559878 124.708007,30.5240071 123.388,29.108 C122.067993,27.6919929 120.256012,26.984 117.952,26.984 C115.311987,27.0320002 113.212008,27.9679909 111.652,29.792 C110.091992,31.6160091 109.312,33.9679856 109.312,36.848 L109.312,56 L98.224,56 L98.224,17.264 L109.312,17.264 L109.312,23.96 C112.000013,19.3039767 116.36797,16.9280005 122.416,16.832 C125.680016,16.832 128.439989,17.6119922 130.696,19.172 C132.952011,20.7320078 134.559995,22.9279858 135.52,25.76 C136.768006,22.8319854 138.579988,20.6240074 140.956,19.136 C143.332012,17.6479926 146.175983,16.8800002 149.488,16.832 C153.760021,16.832 157.155987,18.1639867 159.676,20.828 Z M195.496,56 L195.496,51.464 C194.199994,53.0960082 192.52001,54.3439957 190.456,55.208 C188.39199,56.0720043 186.016013,56.504 183.328,56.504 C179.24798,56.504 176.008012,55.3880112 173.608,53.156 C171.207988,50.9239888 170.008,48.008018 170.008,44.408 C170.008,40.7599818 171.291987,37.9160102 173.86,35.876 C176.428013,33.8359898 180.063976,32.7920002 184.768,32.744 L195.424,32.744 L195.424,32.024 C195.424,29.9599897 194.740007,28.3640056 193.372,27.236 C192.003993,26.1079944 190.000013,25.544 187.36,25.544 C183.759982,25.544 179.92002,26.6719887 175.84,28.928 L172.384,21.296 C175.456015,19.7599923 178.335987,18.6320036 181.024,17.912 C183.712013,17.1919964 186.663984,16.832 189.88,16.832 C195.064026,16.832 199.083986,18.0559878 201.94,20.504 C204.796014,22.9520122 206.248,26.3599782 206.296,30.728 L206.368,56 L195.496,56 Z M192.4,46.928 C194.080008,45.8239945 195.087998,44.4320084 195.424,42.752 L195.424,39.296 L186.712,39.296 C184.551989,39.296 182.956005,39.6439965 181.924,40.34 C180.891995,41.0360035 180.376,42.1519923 180.376,43.688 C180.376,45.1760074 180.915995,46.3639956 181.996,47.252 C183.076005,48.1400044 184.551991,48.584 186.424,48.584 C188.728012,48.584 190.719992,48.0320055 192.4,46.928 Z M215.944,17.264 L227.032,17.264 L227.032,56 L215.944,56 L215.944,17.264 Z M225.772,1.784 C226.900006,2.93600576 227.464,4.42399088 227.464,6.248 C227.464,8.07200912 226.900006,9.55999424 225.772,10.712 C224.643994,11.8640058 223.192009,12.44 221.416,12.44 C219.687991,12.44 218.260006,11.8520059 217.132,10.676 C216.003994,9.49999412 215.44,8.02400888 215.44,6.248 C215.44,4.42399088 216.003994,2.93600576 217.132,1.784 C218.260006,0.63199424 219.687991,0.056 221.416,0.056 C223.192009,0.056 224.643994,0.63199424 225.772,1.784 Z M272.5,20.864 C275.068013,23.5520134 276.352,27.1519774 276.352,31.664 L276.352,56 L265.264,56 L265.264,34.904 C265.264,32.4559878 264.580007,30.5240071 263.212,29.108 C261.843993,27.6919929 259.984012,26.984 257.632,26.984 C254.895986,27.0320002 252.736008,27.9799908 251.152,29.828 C249.567992,31.6760092 248.776,34.0399856 248.776,36.92 L248.776,56 L237.688,56 L237.688,17.264 L248.776,17.264 L248.776,24.032 C251.464013,19.3279765 255.927969,16.9280005 262.168,16.832 C266.488022,16.832 269.931987,18.1759866 272.5,20.864 Z M324.16,2.576 L324.16,56 L313.144,56 L313.144,50.312 C311.751993,52.3280101 310.02401,53.8519948 307.96,54.884 C305.89599,55.9160052 303.544013,56.432 300.904,56.432 C297.255982,56.432 294.052014,55.6040083 291.292,53.948 C288.531986,52.2919917 286.396008,49.9520151 284.884,46.928 C283.371992,43.9039849 282.616,40.4240197 282.616,36.488 C282.616,32.5999806 283.359993,29.1680149 284.848,26.192 C286.336007,23.2159851 288.447986,20.9120082 291.184,19.28 C293.920014,17.6479918 297.063982,16.832 300.616,16.832 C306.088027,16.832 310.263986,18.8719796 313.144,22.952 L313.144,2.576 L324.16,2.576 Z M310.444,44.516 C312.244009,42.52399 313.144,39.9440158 313.144,36.776 C313.144,33.6079842 312.244009,31.02801 310.444,29.036 C308.643991,27.04399 306.328014,26.048 303.496,26.048 C300.615986,26.048 298.276009,27.04399 296.476,29.036 C294.675991,31.02801 293.752,33.6079842 293.704,36.776 C293.752,39.9440158 294.675991,42.52399 296.476,44.516 C298.276009,46.50801 300.615986,47.504 303.496,47.504 C306.328014,47.504 308.643991,46.50801 310.444,44.516 Z M363.58,19.352 C366.724016,20.9840082 369.159991,23.2879851 370.888,26.264 C372.616009,29.2400149 373.48,32.6959803 373.48,36.632 C373.48,40.5200194 372.616009,43.963985 370.888,46.964 C369.159991,49.964015 366.724016,52.2919917 363.58,53.948 C360.435984,55.6040083 356.82402,56.432 352.744,56.432 C348.615979,56.432 344.980016,55.6040083 341.836,53.948 C338.691984,52.2919917 336.256009,49.964015 334.528,46.964 C332.799991,43.963985 331.936,40.5200194 331.936,36.632 C331.936,32.6959803 332.799991,29.2400149 334.528,26.264 C336.256009,23.2879851 338.691984,20.9840082 341.836,19.352 C344.980016,17.7199918 348.615979,16.904 352.744,16.904 C356.82402,16.904 360.435984,17.7199918 363.58,19.352 Z M345.724,29.072 C343.923991,31.0400098 343.024,33.6079842 343.024,36.776 C343.024,39.9440158 343.923991,42.5119902 345.724,44.48 C347.524009,46.4480098 349.863986,47.432 352.744,47.432 C355.576014,47.432 357.891991,46.4480098 359.692,44.48 C361.492009,42.5119902 362.392,39.9440158 362.392,36.776 C362.392,33.6079842 361.492009,31.0400098 359.692,29.072 C357.891991,27.1039902 355.576014,26.12 352.744,26.12 C349.863986,26.12 347.524009,27.1039902 345.724,29.072 Z M398.032,26.336 C395.247986,26.336 392.980009,27.2839905 391.228,29.18 C389.475991,31.0760095 388.6,33.5839844 388.6,36.704 C388.6,39.8240156 389.463991,42.3559903 391.192,44.3 C392.920009,46.2440097 395.127987,47.216 397.816,47.216 C401.84802,47.216 404.84799,45.7040151 406.816,42.68 L414.448,47.864 C412.815992,50.6000137 410.524015,52.7119926 407.572,54.2 C404.619985,55.6880074 401.17602,56.432 397.24,56.432 C393.351981,56.432 389.920015,55.6160082 386.944,53.984 C383.967985,52.3519918 381.652008,50.0480149 379.996,47.072 C378.339992,44.0959851 377.512,40.6640194 377.512,36.776 C377.512,32.8399803 378.339992,29.372015 379.996,26.372 C381.652008,23.371985 383.979985,21.0440083 386.98,19.388 C389.980015,17.7319917 393.44798,16.904 397.384,16.904 C401.080018,16.904 404.367986,17.6119929 407.248,19.028 C410.128014,20.4440071 412.431991,22.447987 414.16,25.04 L406.672,30.44 C404.463989,27.7039863 401.584018,26.336 398.032,26.336 Z" id="domaindoc"></path>
                </g>
                <g id="domaindoc">
                    <path d="M40,56 L40,80 C62.09139,80 80,62.09139 80,40 C80,17.90861 62.09139,0 40,0 L40,24 C48.836556,24 56,31.163444 56,40 C56,48.836556 48.836556,56 40,56 Z" id="Combined-Shape" fill="#149DD3"></path>
                    <path d="M40,24 L40,0 C17.90861,0 0,17.90861 0,40 C0,62.09139 17.90861,80 40,80 L40,56 C31.163444,56 24,48.836556 24,40 C24,31.163444 31.163444,24 40,24 Z" id="Combined-Shape" fill="#062A38"></path>
                    <path d="M40,56 L40,68 C55.463973,68 68,55.463973 68,40 C68,24.536027 55.463973,12 40,12 L40,24 C48.836556,24 56,31.163444 56,40 C56,48.836556 48.836556,56 40,56 L40,56 Z" id="Combined-Shape" fill="#062A38"></path>
                    <path d="M40,24 L40,12 C24.536027,12 12,24.536027 12,40 C12,55.463973 24.536027,68 40,68 L40,56 C31.163444,56 24,48.836556 24,40 C24,31.163444 31.163444,24 40,24 L40,24 Z" id="Combined-Shape" fill="#149DD3"></path>
                </g>
            </g>
        </g>
    </g>
</svg>