<?xml version="1.0" encoding="UTF-8"?>
<svg width="527px" height="97px" viewBox="0 0 527 97" version="1.1" xmlns="http://www.w3.org/2000/svg" xmlns:xlink="http://www.w3.org/1999/xlink">
    <!-- Generator: Sketch 42 (36781) - http://www.bohemiancoding.com/sketch -->
    <title>logo-with-text</title>
    <desc>Created with Sketch.</desc>
    <defs></defs>
    <g id="Page-1" stroke="none" stroke-width="1" fill="none" fill-rule="evenodd">
        <g id="Artboard" transform="translate(-78.000000, -320.000000)">
            <g id="logo-with-text" transform="translate(78.000000, 320.000000)">
                <g id="Group" fill-rule="nonzero" fill="#000000">
                    <path d="M2.01926045,38.9940936 C8.72434814,16.9830119 32.0754321,4.64844244 54.1663605,11.4268697 C76.2572889,18.205297 88.7437947,41.5363484 82.0387071,63.5474301 C75.3336194,85.5585118 51.9825354,97.8930812 29.891607,91.1146539 C7.80067864,84.3362267 -4.68582724,61.0051753 2.01926045,38.9940936 Z M75.8356492,61.6440707 C81.4897489,43.0831128 70.9466327,23.3832875 52.2698954,17.6524779 C33.593158,11.9216682 13.876418,22.3364951 8.22231833,40.897453 C2.56821865,59.4584108 13.1113348,79.1582361 31.7880722,84.8890458 C50.4648095,90.6198555 70.1815495,80.2050285 75.8356492,61.6440707 Z" id="Oval"></path>
                    <path d="M11.0156497,29.5010224 C17.7207374,7.4899407 41.0718214,-4.84462874 63.1627498,1.93379853 C85.2536782,8.7122258 97.740184,32.0432772 91.0350963,54.0543589 C84.3300087,76.0654406 60.9789247,88.40001 38.8879963,81.6215828 C16.7970679,74.8431555 4.31056205,51.5121041 11.0156497,29.5010224 Z M84.8320385,52.1509995 C90.4861381,33.5900416 79.943022,13.8902163 61.2662846,8.15940668 C42.5895473,2.42859701 22.8728073,12.843424 17.2187076,31.4043818 C11.5646079,49.9653397 22.1077241,69.665165 40.7844614,75.3959746 C59.4611988,81.1267843 79.1779388,70.7119573 84.8320385,52.1509995 Z" id="Oval"></path>
                    <path d="M14.1152233,42.7056444 C20.820311,20.6945627 44.1713949,8.35999331 66.2623233,15.1384206 C88.3532517,21.9168479 100.839758,45.2478993 94.1346699,67.258981 C87.4295822,89.2700626 64.0784983,101.604632 41.9875699,94.8262048 C19.8966415,88.0477775 7.41013562,64.7167261 14.1152233,42.7056444 Z M87.931612,65.3556215 C93.5857117,46.7946637 83.0425956,27.0948384 64.3658582,21.3640287 C45.6891208,15.6332191 25.9723809,26.048046 20.3182812,44.6090039 C14.6641815,63.1699617 25.2072976,82.869787 43.884035,88.6005967 C62.5607724,94.3314063 82.2775124,83.9165794 87.931612,65.3556215 Z" id="Oval"></path>
                </g>
                <path d="M153.56,16.576 L153.56,70 L142.544,70 L142.544,64.312 C141.151993,66.3280101 139.42401,67.8519948 137.36,68.884 C135.29599,69.9160052 132.944013,70.432 130.304,70.432 C126.655982,70.432 123.452014,69.6040083 120.692,67.948 C117.931986,66.2919917 115.796008,63.9520151 114.284,60.928 C112.771992,57.9039849 112.016,54.4240197 112.016,50.488 C112.016,46.5999806 112.759993,43.1680149 114.248,40.192 C115.736007,37.2159851 117.847986,34.9120082 120.584,33.28 C123.320014,31.6479918 126.463982,30.832 130.016,30.832 C135.488027,30.832 139.663986,32.8719796 142.544,36.952 L142.544,16.576 L153.56,16.576 Z M139.844,58.516 C141.644009,56.52399 142.544,53.9440158 142.544,50.776 C142.544,47.6079842 141.644009,45.02801 139.844,43.036 C138.043991,41.04399 135.728014,40.048 132.896,40.048 C130.015986,40.048 127.676009,41.04399 125.876,43.036 C124.075991,45.02801 123.152,47.6079842 123.104,50.776 C123.152,53.9440158 124.075991,56.52399 125.876,58.516 C127.676009,60.50801 130.015986,61.504 132.896,61.504 C135.728014,61.504 138.043991,60.50801 139.844,58.516 Z M192.98,33.352 C196.124016,34.9840082 198.559991,37.2879851 200.288,40.264 C202.016009,43.2400149 202.88,46.6959803 202.88,50.632 C202.88,54.5200194 202.016009,57.963985 200.288,60.964 C198.559991,63.964015 196.124016,66.2919917 192.98,67.948 C189.835984,69.6040083 186.22402,70.432 182.144,70.432 C178.015979,70.432 174.380016,69.6040083 171.236,67.948 C168.091984,66.2919917 165.656009,63.964015 163.928,60.964 C162.199991,57.963985 161.336,54.5200194 161.336,50.632 C161.336,46.6959803 162.199991,43.2400149 163.928,40.264 C165.656009,37.2879851 168.091984,34.9840082 171.236,33.352 C174.380016,31.7199918 178.015979,30.904 182.144,30.904 C186.22402,30.904 189.835984,31.7199918 192.98,33.352 Z M175.124,43.072 C173.323991,45.0400098 172.424,47.6079842 172.424,50.776 C172.424,53.9440158 173.323991,56.5119902 175.124,58.48 C176.924009,60.4480098 179.263986,61.432 182.144,61.432 C184.976014,61.432 187.291991,60.4480098 189.092,58.48 C190.892009,56.5119902 191.792,53.9440158 191.792,50.776 C191.792,47.6079842 190.892009,45.0400098 189.092,43.072 C187.291991,41.1039902 184.976014,40.12 182.144,40.12 C179.263986,40.12 176.924009,41.1039902 175.124,43.072 Z M271.676,34.828 C274.196013,37.4920133 275.456,41.1039772 275.456,45.664 L275.456,70 L264.44,70 L264.44,48.904 C264.44,46.4079875 263.768007,44.464007 262.424,43.072 C261.079993,41.679993 259.256012,40.984 256.952,40.984 C254.311987,41.0320002 252.224008,41.9679909 250.688,43.792 C249.151992,45.6160091 248.384,47.9679856 248.384,50.848 L248.384,70 L237.368,70 L237.368,48.904 C237.368,46.4559878 236.708007,44.5240071 235.388,43.108 C234.067993,41.6919929 232.256012,40.984 229.952,40.984 C227.311987,41.0320002 225.212008,41.9679909 223.652,43.792 C222.091992,45.6160091 221.312,47.9679856 221.312,50.848 L221.312,70 L210.224,70 L210.224,31.264 L221.312,31.264 L221.312,37.96 C224.000013,33.3039767 228.36797,30.9280005 234.416,30.832 C237.680016,30.832 240.439989,31.6119922 242.696,33.172 C244.952011,34.7320078 246.559995,36.9279858 247.52,39.76 C248.768006,36.8319854 250.579988,34.6240074 252.956,33.136 C255.332012,31.6479926 258.175983,30.8800002 261.488,30.832 C265.760021,30.832 269.155987,32.1639867 271.676,34.828 Z M307.496,70 L307.496,65.464 C306.199994,67.0960082 304.52001,68.3439957 302.456,69.208 C300.39199,70.0720043 298.016013,70.504 295.328,70.504 C291.24798,70.504 288.008012,69.3880112 285.608,67.156 C283.207988,64.9239888 282.008,62.008018 282.008,58.408 C282.008,54.7599818 283.291987,51.9160102 285.86,49.876 C288.428013,47.8359898 292.063976,46.7920002 296.768,46.744 L307.424,46.744 L307.424,46.024 C307.424,43.9599897 306.740007,42.3640056 305.372,41.236 C304.003993,40.1079944 302.000013,39.544 299.36,39.544 C295.759982,39.544 291.92002,40.6719887 287.84,42.928 L284.384,35.296 C287.456015,33.7599923 290.335987,32.6320036 293.024,31.912 C295.712013,31.1919964 298.663984,30.832 301.88,30.832 C307.064026,30.832 311.083986,32.0559878 313.94,34.504 C316.796014,36.9520122 318.248,40.3599782 318.296,44.728 L318.368,70 L307.496,70 Z M304.4,60.928 C306.080008,59.8239945 307.087998,58.4320084 307.424,56.752 L307.424,53.296 L298.712,53.296 C296.551989,53.296 294.956005,53.6439965 293.924,54.34 C292.891995,55.0360035 292.376,56.1519923 292.376,57.688 C292.376,59.1760074 292.915995,60.3639956 293.996,61.252 C295.076005,62.1400044 296.551991,62.584 298.424,62.584 C300.728012,62.584 302.719992,62.0320055 304.4,60.928 Z M327.944,31.264 L339.032,31.264 L339.032,70 L327.944,70 L327.944,31.264 Z M337.772,15.784 C338.900006,16.9360058 339.464,18.4239909 339.464,20.248 C339.464,22.0720091 338.900006,23.5599942 337.772,24.712 C336.643994,25.8640058 335.192009,26.44 333.416,26.44 C331.687991,26.44 330.260006,25.8520059 329.132,24.676 C328.003994,23.4999941 327.44,22.0240089 327.44,20.248 C327.44,18.4239909 328.003994,16.9360058 329.132,15.784 C330.260006,14.6319942 331.687991,14.056 333.416,14.056 C335.192009,14.056 336.643994,14.6319942 337.772,15.784 Z M384.5,34.864 C387.068013,37.5520134 388.352,41.1519774 388.352,45.664 L388.352,70 L377.264,70 L377.264,48.904 C377.264,46.4559878 376.580007,44.5240071 375.212,43.108 C373.843993,41.6919929 371.984012,40.984 369.632,40.984 C366.895986,41.0320002 364.736008,41.9799908 363.152,43.828 C361.567992,45.6760092 360.776,48.0399856 360.776,50.92 L360.776,70 L349.688,70 L349.688,31.264 L360.776,31.264 L360.776,38.032 C363.464013,33.3279765 367.927969,30.9280005 374.168,30.832 C378.488022,30.832 381.931987,32.1759866 384.5,34.864 Z M436.16,16.576 L436.16,70 L425.144,70 L425.144,64.312 C423.751993,66.3280101 422.02401,67.8519948 419.96,68.884 C417.89599,69.9160052 415.544013,70.432 412.904,70.432 C409.255982,70.432 406.052014,69.6040083 403.292,67.948 C400.531986,66.2919917 398.396008,63.9520151 396.884,60.928 C395.371992,57.9039849 394.616,54.4240197 394.616,50.488 C394.616,46.5999806 395.359993,43.1680149 396.848,40.192 C398.336007,37.2159851 400.447986,34.9120082 403.184,33.28 C405.920014,31.6479918 409.063982,30.832 412.616,30.832 C418.088027,30.832 422.263986,32.8719796 425.144,36.952 L425.144,16.576 L436.16,16.576 Z M422.444,58.516 C424.244009,56.52399 425.144,53.9440158 425.144,50.776 C425.144,47.6079842 424.244009,45.02801 422.444,43.036 C420.643991,41.04399 418.328014,40.048 415.496,40.048 C412.615986,40.048 410.276009,41.04399 408.476,43.036 C406.675991,45.02801 405.752,47.6079842 405.704,50.776 C405.752,53.9440158 406.675991,56.52399 408.476,58.516 C410.276009,60.50801 412.615986,61.504 415.496,61.504 C418.328014,61.504 420.643991,60.50801 422.444,58.516 Z M475.58,33.352 C478.724016,34.9840082 481.159991,37.2879851 482.888,40.264 C484.616009,43.2400149 485.48,46.6959803 485.48,50.632 C485.48,54.5200194 484.616009,57.963985 482.888,60.964 C481.159991,63.964015 478.724016,66.2919917 475.58,67.948 C472.435984,69.6040083 468.82402,70.432 464.744,70.432 C460.615979,70.432 456.980016,69.6040083 453.836,67.948 C450.691984,66.2919917 448.256009,63.964015 446.528,60.964 C444.799991,57.963985 443.936,54.5200194 443.936,50.632 C443.936,46.6959803 444.799991,43.2400149 446.528,40.264 C448.256009,37.2879851 450.691984,34.9840082 453.836,33.352 C456.980016,31.7199918 460.615979,30.904 464.744,30.904 C468.82402,30.904 472.435984,31.7199918 475.58,33.352 Z M457.724,43.072 C455.923991,45.0400098 455.024,47.6079842 455.024,50.776 C455.024,53.9440158 455.923991,56.5119902 457.724,58.48 C459.524009,60.4480098 461.863986,61.432 464.744,61.432 C467.576014,61.432 469.891991,60.4480098 471.692,58.48 C473.492009,56.5119902 474.392,53.9440158 474.392,50.776 C474.392,47.6079842 473.492009,45.0400098 471.692,43.072 C469.891991,41.1039902 467.576014,40.12 464.744,40.12 C461.863986,40.12 459.524009,41.1039902 457.724,43.072 Z M510.032,40.336 C507.247986,40.336 504.980009,41.2839905 503.228,43.18 C501.475991,45.0760095 500.6,47.5839844 500.6,50.704 C500.6,53.8240156 501.463991,56.3559903 503.192,58.3 C504.920009,60.2440097 507.127987,61.216 509.816,61.216 C513.84802,61.216 516.84799,59.7040151 518.816,56.68 L526.448,61.864 C524.815992,64.6000137 522.524015,66.7119926 519.572,68.2 C516.619985,69.6880074 513.17602,70.432 509.24,70.432 C505.351981,70.432 501.920015,69.6160082 498.944,67.984 C495.967985,66.3519918 493.652008,64.0480149 491.996,61.072 C490.339992,58.0959851 489.512,54.6640194 489.512,50.776 C489.512,46.8399803 490.339992,43.372015 491.996,40.372 C493.652008,37.371985 495.979985,35.0440083 498.98,33.388 C501.980015,31.7319917 505.44798,30.904 509.384,30.904 C513.080018,30.904 516.367986,31.6119929 519.248,33.028 C522.128014,34.4440071 524.431991,36.447987 526.16,39.04 L518.672,44.44 C516.463989,41.7039863 513.584018,40.336 510.032,40.336 Z" id="domaindoc" fill="#202020"></path>
            </g>
        </g>
    </g>
</svg>